<svg viewBox="-46 0 512 512" xmlns="http://www.w3.org/2000/svg"><path d="m90 467c0 24.8125 20.1875 45 45 45h240c24.8125 0 45-20.1875 45-45v-422c0-24.8125-20.1875-45-45-45h-240c-24.8125 0-45 20.1875-45 45v107.074219c-50.816406 7.304687-90 51.121093-90 103.925781s39.183594 96.621094 90 103.925781zm106.074219-158.710938 18.320312 18.316407c5.855469 5.859375 15.351563 5.859375 21.210938 0l19.394531-19.390625 19.394531 19.390625c5.855469 5.859375 15.355469 5.859375 21.210938 0l4.394531-4.390625v23.785156c0 8.285156 6.71875 15 15 15 8.285156 0 15-6.714844 15-15 0-10.542969 0-169.589844 0-180 0-8.285156-6.714844-15-15-15-8.28125 0-15 6.714844-15 15v45h-100.105469c-15.078125-31.773438-45.238281-53.90625-79.894531-58.921875v-62.078125h270v332h-270v-62.089844c31.9375-4.621094 60.058594-23.769531 76.074219-51.621094zm178.925781 173.710938h-240c-8.269531 0-15-6.730469-15-15v-15h270v15c0 8.269531-6.730469 15-15 15zm-240-452h240c8.269531 0 15 6.730469 15 15v15h-270v-15c0-8.269531 6.730469-15 15-15zm-105 226c0-41.355469 33.644531-75 75-75 31.738281 0 60.164062 20.09375 70.734375 50 2.121094 5.992188 7.785156 10 14.144531 10h110.121094v38.785156l-15 15-19.394531-19.390625c-5.855469-5.859375-15.355469-5.859375-21.210938 0l-19.394531 19.390625-19.394531-19.390625c-2.8125-2.816406-6.625-4.394531-10.605469-4.394531h-5.121094c-6.355468 0-12.023437 4.007812-14.144531 10-10.570313 29.90625-38.996094 50-70.734375 50-41.355469 0-75-33.644531-75-75zm0 0"/><path d="m89.972656 256c0 8.285156-6.71875 15-15 15-8.285156 0-15-6.714844-15-15s6.714844-15 15-15c8.28125 0 15 6.714844 15 15zm0 0"/></svg>